<svg xmlns="http://www.w3.org/2000/svg" viewBox="0 0 281.19 44.86"><defs><style>.cls-1{fill:#fff;}</style></defs><g id="Ebene_2" data-name="Ebene 2"><g id="Ebene_1-2" data-name="Ebene 1"><g id="c90ae101-33c4-4175-8a4c-975701d4c706"><path class="cls-1" d="M64.2,0c0,4.38-9.07,2.19-9.07,11,0,3.29,1,4.38,1,4.38h1S55.63,14.25,55.63,11c0-2.19,4.54-4.38,4.54-4.38s-4,2.35-4,4.6C62.54,12.27,66.12,4.16,64.2,0Z"/></g><g id="_6dc7cb61-1260-4e91-94dc-51923254a909" data-name="6dc7cb61-1260-4e91-94dc-51923254a909"><path class="cls-1" d="M0,6.76H6.89v15l14.59-15h9.33L14.59,23.38,32,43.65H22.7l-13-15.81L6.89,30.67V43.24H0ZM37.29,43.24V4.33h6.49V43.24Zm17.84,0V15.68H62V43.24ZM97.69,21h0c1.62-4.06,4.87-6.08,9.32-6.08h0a10.38,10.38,0,0,1,7.71,3.24h0A13.76,13.76,0,0,1,117.55,27h0V43.24h-6.89V27h0c0-2-.4-3.65-1.62-4.46h0C108.23,21.35,106.61,21,105,21h0a5.61,5.61,0,0,0-4.46,2.43h0c-1.22,1.62-1.62,4.05-1.62,6.89h0v13H92V27h0c0-2-.41-3.65-1.62-4.46h0C89.58,21.35,88,21,86.34,21h0a5.61,5.61,0,0,0-4.46,2.43h0a12.06,12.06,0,0,0-2,7.29h0v13H73.37v-28h5.68l.81,4.86h0a9.3,9.3,0,0,1,8.91-5.67h0a8.55,8.55,0,0,1,5.68,1.62h0A17.86,17.86,0,0,1,97.69,21Zm40.13-5.68h0a20.74,20.74,0,0,1,5.27.81h0a7.5,7.5,0,0,1,4.06,2.84h0a16.49,16.49,0,0,1,4,10.94h0c0,4.46-1.22,8.11-4,11h0a14.46,14.46,0,0,1-9.33,3.24h0a13.14,13.14,0,0,1-9.73-3.65h0c-2.43-2.43-4-6.08-4-10.94h0c0-4.87,1.22-8.51,4-10.95h0C130.53,16.08,133.77,15.27,137.82,15.27Zm6.49,14.19h0c0-2.84-.41-5.27-1.62-6.49h0c-1.22-1.62-2.84-2-4.87-2h0A6.72,6.72,0,0,0,133,23h0a10.3,10.3,0,0,0-2,6.49h0c0,2.84.41,4.86,1.62,6.48h0c1.22,1.63,2.84,2,4.87,2h0a6.69,6.69,0,0,0,4.86-2h0C143.5,34.73,144.31,32.7,144.31,29.46Zm12.16,5.67h6.08c0,2.44,2,4.06,5.67,4.06h0a8.14,8.14,0,0,0,3.65-.81h0c.81-.81,1.22-1.22,1.22-2h0a3.14,3.14,0,0,0-.81-2h0a9.74,9.74,0,0,0-2.84-1.21h0l-6.08-2h0c-4.46-1.62-6.89-4-6.89-7.7h0c0-2.43,1.21-4.06,3.24-5.68h0c2-1.62,4.87-2,8.51-2h0c3.65,0,6.08.81,8.11,2.43h0a7.07,7.07,0,0,1,2.84,5.67h-6.08a2.22,2.22,0,0,0-1.22-2h0a7.54,7.54,0,0,0-3.24-.81h0a8,8,0,0,0-3.65.81h0a2.21,2.21,0,0,0-1.21,2h0c0,1.22,1.21,2.44,3.24,2.84h0l6.48,2.43h0a14,14,0,0,1,4.87,2.84h0A5.56,5.56,0,0,1,180,36.35h0c0,2.43-1.22,4-3.24,6.08h0a15.45,15.45,0,0,1-8.92,2.43h0a15.42,15.42,0,0,1-8.92-2.43h0c-1.22-2.43-2.43-4.46-2.43-7.3Zm47,2.84.81,4.87h0c-2.43.81-4.46,1.62-6.08,1.62h0a8.91,8.91,0,0,1-3.65-.41h0a6.58,6.58,0,0,1-2.84-1.62h0a9.21,9.21,0,0,1-2.43-6.49h0V20.14h-4.05V15.68h4.05V8.38h6.49v7.3h7.7v4.46h-7.7v15.4h0c0,2.43,1.21,3.24,3.24,3.24h0a9.5,9.5,0,0,0,4.46-.81Zm17-10.54h0a30,30,0,0,1,7.7,1.22h0V25.81h0A7.29,7.29,0,0,0,227,21.35h0a5,5,0,0,0-3.65-1.21h0a6,6,0,0,0-4,1.21h0c-1.22.41-1.62,1.22-1.62,2.84h-7.3a8.12,8.12,0,0,1,3.24-6.89h0c2-1.22,5.27-2,9.33-2h0q8.51,0,10.94,6.08h0a15,15,0,0,1,.81,4.87h0V43.65H229L228.62,40h0a8.87,8.87,0,0,1-8.1,4.46h0c-3.65,0-6.49-.81-8.11-2.44h0a8.81,8.81,0,0,1-2.84-6.48h0a7.29,7.29,0,0,1,2.84-6.08h0C214,27.84,216.87,27.43,220.52,27.43Zm7.29,5.27h0a15.74,15.74,0,0,0-6.08-.81h0c-3.65,0-5.27,1.22-5.27,3.65h0A2.44,2.44,0,0,0,217.68,38h0c.81.81,2,1.22,4,1.22h0a5.8,5.8,0,0,0,4.46-2h0A6.09,6.09,0,0,0,227.81,32.7ZM259,38l.82,4.87h0a20.36,20.36,0,0,1-5.68,1.21h0a9.12,9.12,0,0,1-3.65-.4h0A6.6,6.6,0,0,1,247.67,42h0a8.54,8.54,0,0,1-2.43-6.48h0V20.14h-4.05V15.68h4.05V8.38h6.49v7.3H259v4.46h-7.29v15.4h0c0,2.43,1.21,3.24,3.24,3.24h0a8.81,8.81,0,0,0,4-.81Z"/></g><path class="cls-1" d="M256.63,11.45h7.42v2.16h-9.78V11.39A3.73,3.73,0,0,1,255.93,8a7.16,7.16,0,0,1,1.3-.64l2.66-1a2.9,2.9,0,0,0,1.29-.85,2,2,0,0,0,.41-1.27,1.69,1.69,0,0,0-.54-1.27,2.15,2.15,0,0,0-1.54-.51,2.69,2.69,0,0,0-1.65.48,2,2,0,0,0-.75,1.42h-2.62a3.65,3.65,0,0,1,1.46-3,5.7,5.7,0,0,1,3.5-1,5.1,5.1,0,0,1,3.34,1.08,3.46,3.46,0,0,1,1.34,2.74,3.9,3.9,0,0,1-.81,2.59,6,6,0,0,1-2.51,1.63l-2.7,1a3.14,3.14,0,0,0-1.13.67,1.36,1.36,0,0,0-.35,1Z"/><path class="cls-1" d="M266.11,13.35a1.46,1.46,0,0,1-.46-1.12,1.55,1.55,0,0,1,.46-1.14,1.63,1.63,0,0,1,1.18-.46,1.69,1.69,0,0,1,1.2.46,1.53,1.53,0,0,1,.48,1.14,1.44,1.44,0,0,1-.48,1.12,1.68,1.68,0,0,1-1.2.44A1.62,1.62,0,0,1,266.11,13.35Z"/><path class="cls-1" d="M275.79.37A5.73,5.73,0,0,1,278,.78,4.42,4.42,0,0,1,279.67,2a7.67,7.67,0,0,1,1.52,5.1,7.63,7.63,0,0,1-1.52,5.1,4.76,4.76,0,0,1-3.86,1.66,4.86,4.86,0,0,1-3.9-1.66,7.61,7.61,0,0,1-1.5-5.1,7.61,7.61,0,0,1,1.5-5.1A4.86,4.86,0,0,1,275.79.37ZM278,3.7a2.59,2.59,0,0,0-4.36,0,6.38,6.38,0,0,0-.77,3.43,6.24,6.24,0,0,0,.77,3.41,2.62,2.62,0,0,0,4.36,0,6.24,6.24,0,0,0,.77-3.41A6.38,6.38,0,0,0,278,3.7Z"/></g></g></svg>