<svg xmlns="http://www.w3.org/2000/svg" viewBox="0 0 282.13 47.74"><defs><style>.cls-1,.cls-2{fill:#172815;}.cls-2{font-size:20px;font-family:Karla-Bold, Karla;font-weight:700;}</style></defs><g id="Ebene_2" data-name="Ebene 2"><g id="Ebene_1-2" data-name="Ebene 1"><g id="c90ae101-33c4-4175-8a4c-975701d4c706"><path class="cls-1" d="M64.2,2.88c0,4.38-9.07,2.19-9.07,11,0,3.28,1,4.38,1,4.38h1s-1.52-1.1-1.52-4.38c0-2.19,4.54-4.39,4.54-4.39s-4,2.36-4,4.61C62.54,15.15,66.12,7,64.2,2.88Z"/></g><g id="_6dc7cb61-1260-4e91-94dc-51923254a909" data-name="6dc7cb61-1260-4e91-94dc-51923254a909"><path class="cls-1" d="M0,9.64H6.89v15l14.59-15h9.33L14.59,26.26,32,46.52H22.7l-13-15.8L6.89,33.55V46.12H0ZM37.29,46.12V7.2h6.49V46.12Zm17.84,0V18.56H62V46.12Zm42.56-22.3h0c1.62-4.05,4.87-6.08,9.32-6.08h0A10.38,10.38,0,0,1,114.72,21h0a13.74,13.74,0,0,1,2.83,8.92h0V46.12h-6.89V29.91h0c0-2-.4-3.65-1.62-4.46h0c-.81-1.22-2.43-1.63-4.05-1.63h0a5.62,5.62,0,0,0-4.46,2.44h0c-1.22,1.62-1.62,4-1.62,6.89h0v13H92V29.91h0c0-2-.41-3.65-1.62-4.46h0c-.82-1.22-2.44-1.63-4.06-1.63h0a5.62,5.62,0,0,0-4.46,2.44h0a12.06,12.06,0,0,0-2,7.29h0v13H73.37v-28h5.68l.81,4.86h0a9.31,9.31,0,0,1,8.91-5.68h0a8.56,8.56,0,0,1,5.68,1.63h0A18,18,0,0,1,97.69,23.82Zm40.13-5.67h0a20.74,20.74,0,0,1,5.27.81h0a7.5,7.5,0,0,1,4.06,2.84h0a16.47,16.47,0,0,1,4,10.94h0c0,4.46-1.22,8.11-4,10.95h0a14.52,14.52,0,0,1-9.33,3.24h0a13.18,13.18,0,0,1-9.73-3.65h0c-2.43-2.43-4-6.08-4-10.94h0c0-4.87,1.22-8.52,4-11h0C130.53,19,133.77,18.15,137.82,18.15Zm6.49,14.19h0c0-2.84-.41-5.27-1.62-6.49h0c-1.22-1.62-2.84-2-4.87-2h0a6.73,6.73,0,0,0-4.86,2h0a10.3,10.3,0,0,0-2,6.49h0c0,2.83.41,4.86,1.62,6.48h0c1.22,1.62,2.84,2,4.87,2h0a6.69,6.69,0,0,0,4.86-2h0C143.5,37.61,144.31,35.58,144.31,32.34ZM156.47,38h6.08c0,2.43,2,4.06,5.67,4.06h0a8.14,8.14,0,0,0,3.65-.81h0c.81-.82,1.22-1.22,1.22-2h0a3.14,3.14,0,0,0-.81-2h0A9.74,9.74,0,0,0,169.44,36h0l-6.08-2h0c-4.46-1.62-6.89-4.05-6.89-7.7h0c0-2.44,1.21-4.06,3.24-5.68h0c2-1.62,4.87-2,8.51-2h0c3.65,0,6.08.81,8.11,2.43h0a7.07,7.07,0,0,1,2.84,5.67h-6.08a2.22,2.22,0,0,0-1.22-2h0a7.54,7.54,0,0,0-3.24-.82h0a8,8,0,0,0-3.65.82h0a2.21,2.21,0,0,0-1.21,2h0c0,1.22,1.21,2.43,3.24,2.84h0l6.48,2.43h0a14,14,0,0,1,4.87,2.84h0A5.56,5.56,0,0,1,180,39.23h0c0,2.43-1.22,4.05-3.24,6.08h0a15.45,15.45,0,0,1-8.92,2.43h0a15.42,15.42,0,0,1-8.92-2.43h0c-1.22-2.43-2.43-4.46-2.43-7.3Zm47,2.84.81,4.86h0c-2.43.81-4.46,1.63-6.08,1.63h0a8.91,8.91,0,0,1-3.65-.41h0a6.69,6.69,0,0,1-2.84-1.62h0a9.21,9.21,0,0,1-2.43-6.49h0V23h-4.05V18.56h4.05v-7.3h6.49v7.3h7.7V23h-7.7V38.42h0c0,2.43,1.21,3.24,3.24,3.24h0a9.5,9.5,0,0,0,4.46-.81Zm17-10.54h0a30,30,0,0,1,7.7,1.22h0V28.69h0A7.29,7.29,0,0,0,227,24.23h0A5,5,0,0,0,223.35,23h0a6,6,0,0,0-4,1.22h0c-1.22.41-1.62,1.22-1.62,2.84h-7.3a8.11,8.11,0,0,1,3.24-6.89h0c2-1.22,5.27-2,9.33-2h0q8.51,0,10.94,6.08h0a15,15,0,0,1,.81,4.86h0V46.52H229l-.41-3.64h0a8.89,8.89,0,0,1-8.1,4.46h0c-3.65,0-6.49-.82-8.11-2.44h0a8.81,8.81,0,0,1-2.84-6.48h0a7.29,7.29,0,0,1,2.84-6.08h0C214,30.72,216.87,30.31,220.52,30.31Zm7.29,5.27h0a15.74,15.74,0,0,0-6.08-.81h0c-3.65,0-5.27,1.22-5.27,3.65h0a2.46,2.46,0,0,0,1.22,2.43h0c.81.81,2,1.22,4,1.22h0a5.8,5.8,0,0,0,4.46-2h0A6.09,6.09,0,0,0,227.81,35.58ZM259,40.85l.82,4.86h0a20.46,20.46,0,0,1-5.68,1.22h0a8.91,8.91,0,0,1-3.65-.41h0a6.58,6.58,0,0,1-2.84-1.62h0a8.54,8.54,0,0,1-2.43-6.48h0V23h-4.05V18.56h4.05v-7.3h6.49v7.3H259V23h-7.29V38.42h0c0,2.43,1.21,3.24,3.24,3.24h0a8.81,8.81,0,0,0,4-.81Z"/></g><text class="cls-2" transform="translate(253.07 16.49)">2.0</text></g></g></svg>